<mxfile host="Electron" agent="Mozilla/5.0 (Windows NT 10.0; Win64; x64) AppleWebKit/537.36 (KHTML, like Gecko) draw.io/26.1.1 Chrome/132.0.6834.210 Electron/34.3.3 Safari/537.36" version="26.1.1">
  <diagram name="Page-1" id="WSm97viWp-CEM94ddss1">
    <mxGraphModel dx="2100" dy="1338" grid="1" gridSize="10" guides="1" tooltips="1" connect="1" arrows="1" fold="1" page="1" pageScale="1" pageWidth="1654" pageHeight="2336" math="0" shadow="0">
      <root>
        <mxCell id="0" />
        <mxCell id="1" parent="0" />
        <mxCell id="a0pVStgp1Q9jCsYy35CJ-15" value="gold.dim_customers" style="shape=table;startSize=40;container=1;collapsible=1;childLayout=tableLayout;fixedRows=1;rowLines=0;fontStyle=1;align=center;resizeLast=1;html=1;fontSize=16;fillColor=#fff2cc;strokeColor=#d6b656;rounded=1;" vertex="1" parent="1">
          <mxGeometry x="400" y="310" width="230" height="315" as="geometry" />
        </mxCell>
        <mxCell id="a0pVStgp1Q9jCsYy35CJ-16" value="" style="shape=tableRow;horizontal=0;startSize=0;swimlaneHead=0;swimlaneBody=0;fillColor=none;collapsible=0;dropTarget=0;points=[[0,0.5],[1,0.5]];portConstraint=eastwest;top=0;left=0;right=0;bottom=1;fontSize=16;" vertex="1" parent="a0pVStgp1Q9jCsYy35CJ-15">
          <mxGeometry y="40" width="230" height="40" as="geometry" />
        </mxCell>
        <mxCell id="a0pVStgp1Q9jCsYy35CJ-17" value="PK" style="shape=partialRectangle;connectable=0;fillColor=none;top=0;left=0;bottom=0;right=0;fontStyle=1;overflow=hidden;whiteSpace=wrap;html=1;fontSize=16;" vertex="1" parent="a0pVStgp1Q9jCsYy35CJ-16">
          <mxGeometry width="30" height="40" as="geometry">
            <mxRectangle width="30" height="40" as="alternateBounds" />
          </mxGeometry>
        </mxCell>
        <mxCell id="a0pVStgp1Q9jCsYy35CJ-18" value="customer_key" style="shape=partialRectangle;connectable=0;fillColor=none;top=0;left=0;bottom=0;right=0;align=left;spacingLeft=6;fontStyle=5;overflow=hidden;whiteSpace=wrap;html=1;fontSize=16;" vertex="1" parent="a0pVStgp1Q9jCsYy35CJ-16">
          <mxGeometry x="30" width="200" height="40" as="geometry">
            <mxRectangle width="200" height="40" as="alternateBounds" />
          </mxGeometry>
        </mxCell>
        <mxCell id="a0pVStgp1Q9jCsYy35CJ-19" value="" style="shape=tableRow;horizontal=0;startSize=0;swimlaneHead=0;swimlaneBody=0;fillColor=none;collapsible=0;dropTarget=0;points=[[0,0.5],[1,0.5]];portConstraint=eastwest;top=0;left=0;right=0;bottom=0;fontSize=16;" vertex="1" parent="a0pVStgp1Q9jCsYy35CJ-15">
          <mxGeometry y="80" width="230" height="33" as="geometry" />
        </mxCell>
        <mxCell id="a0pVStgp1Q9jCsYy35CJ-20" value="" style="shape=partialRectangle;connectable=0;fillColor=none;top=0;left=0;bottom=0;right=0;editable=1;overflow=hidden;whiteSpace=wrap;html=1;fontSize=16;" vertex="1" parent="a0pVStgp1Q9jCsYy35CJ-19">
          <mxGeometry width="30" height="33" as="geometry">
            <mxRectangle width="30" height="33" as="alternateBounds" />
          </mxGeometry>
        </mxCell>
        <mxCell id="a0pVStgp1Q9jCsYy35CJ-21" value="customer_id" style="shape=partialRectangle;connectable=0;fillColor=none;top=0;left=0;bottom=0;right=0;align=left;spacingLeft=6;overflow=hidden;whiteSpace=wrap;html=1;fontSize=16;" vertex="1" parent="a0pVStgp1Q9jCsYy35CJ-19">
          <mxGeometry x="30" width="200" height="33" as="geometry">
            <mxRectangle width="200" height="33" as="alternateBounds" />
          </mxGeometry>
        </mxCell>
        <mxCell id="a0pVStgp1Q9jCsYy35CJ-22" value="" style="shape=tableRow;horizontal=0;startSize=0;swimlaneHead=0;swimlaneBody=0;fillColor=none;collapsible=0;dropTarget=0;points=[[0,0.5],[1,0.5]];portConstraint=eastwest;top=0;left=0;right=0;bottom=0;fontSize=16;" vertex="1" parent="a0pVStgp1Q9jCsYy35CJ-15">
          <mxGeometry y="113" width="230" height="33" as="geometry" />
        </mxCell>
        <mxCell id="a0pVStgp1Q9jCsYy35CJ-23" value="" style="shape=partialRectangle;connectable=0;fillColor=none;top=0;left=0;bottom=0;right=0;editable=1;overflow=hidden;whiteSpace=wrap;html=1;fontSize=16;" vertex="1" parent="a0pVStgp1Q9jCsYy35CJ-22">
          <mxGeometry width="30" height="33" as="geometry">
            <mxRectangle width="30" height="33" as="alternateBounds" />
          </mxGeometry>
        </mxCell>
        <mxCell id="a0pVStgp1Q9jCsYy35CJ-24" value="customer_unique_id" style="shape=partialRectangle;connectable=0;fillColor=none;top=0;left=0;bottom=0;right=0;align=left;spacingLeft=6;overflow=hidden;whiteSpace=wrap;html=1;fontSize=16;" vertex="1" parent="a0pVStgp1Q9jCsYy35CJ-22">
          <mxGeometry x="30" width="200" height="33" as="geometry">
            <mxRectangle width="200" height="33" as="alternateBounds" />
          </mxGeometry>
        </mxCell>
        <mxCell id="a0pVStgp1Q9jCsYy35CJ-25" value="" style="shape=tableRow;horizontal=0;startSize=0;swimlaneHead=0;swimlaneBody=0;fillColor=none;collapsible=0;dropTarget=0;points=[[0,0.5],[1,0.5]];portConstraint=eastwest;top=0;left=0;right=0;bottom=0;fontSize=16;" vertex="1" parent="a0pVStgp1Q9jCsYy35CJ-15">
          <mxGeometry y="146" width="230" height="33" as="geometry" />
        </mxCell>
        <mxCell id="a0pVStgp1Q9jCsYy35CJ-26" value="" style="shape=partialRectangle;connectable=0;fillColor=none;top=0;left=0;bottom=0;right=0;editable=1;overflow=hidden;whiteSpace=wrap;html=1;fontSize=16;" vertex="1" parent="a0pVStgp1Q9jCsYy35CJ-25">
          <mxGeometry width="30" height="33" as="geometry">
            <mxRectangle width="30" height="33" as="alternateBounds" />
          </mxGeometry>
        </mxCell>
        <mxCell id="a0pVStgp1Q9jCsYy35CJ-27" value="zip_code_prefix" style="shape=partialRectangle;connectable=0;fillColor=none;top=0;left=0;bottom=0;right=0;align=left;spacingLeft=6;overflow=hidden;whiteSpace=wrap;html=1;fontSize=16;" vertex="1" parent="a0pVStgp1Q9jCsYy35CJ-25">
          <mxGeometry x="30" width="200" height="33" as="geometry">
            <mxRectangle width="200" height="33" as="alternateBounds" />
          </mxGeometry>
        </mxCell>
        <mxCell id="a0pVStgp1Q9jCsYy35CJ-28" value="" style="shape=tableRow;horizontal=0;startSize=0;swimlaneHead=0;swimlaneBody=0;fillColor=none;collapsible=0;dropTarget=0;points=[[0,0.5],[1,0.5]];portConstraint=eastwest;top=0;left=0;right=0;bottom=0;fontSize=16;" vertex="1" parent="a0pVStgp1Q9jCsYy35CJ-15">
          <mxGeometry y="179" width="230" height="33" as="geometry" />
        </mxCell>
        <mxCell id="a0pVStgp1Q9jCsYy35CJ-29" value="" style="shape=partialRectangle;connectable=0;fillColor=none;top=0;left=0;bottom=0;right=0;editable=1;overflow=hidden;whiteSpace=wrap;html=1;fontSize=16;" vertex="1" parent="a0pVStgp1Q9jCsYy35CJ-28">
          <mxGeometry width="30" height="33" as="geometry">
            <mxRectangle width="30" height="33" as="alternateBounds" />
          </mxGeometry>
        </mxCell>
        <mxCell id="a0pVStgp1Q9jCsYy35CJ-30" value="lat" style="shape=partialRectangle;connectable=0;fillColor=none;top=0;left=0;bottom=0;right=0;align=left;spacingLeft=6;overflow=hidden;whiteSpace=wrap;html=1;fontSize=16;" vertex="1" parent="a0pVStgp1Q9jCsYy35CJ-28">
          <mxGeometry x="30" width="200" height="33" as="geometry">
            <mxRectangle width="200" height="33" as="alternateBounds" />
          </mxGeometry>
        </mxCell>
        <mxCell id="a0pVStgp1Q9jCsYy35CJ-31" value="" style="shape=tableRow;horizontal=0;startSize=0;swimlaneHead=0;swimlaneBody=0;fillColor=none;collapsible=0;dropTarget=0;points=[[0,0.5],[1,0.5]];portConstraint=eastwest;top=0;left=0;right=0;bottom=0;fontSize=16;" vertex="1" parent="a0pVStgp1Q9jCsYy35CJ-15">
          <mxGeometry y="212" width="230" height="33" as="geometry" />
        </mxCell>
        <mxCell id="a0pVStgp1Q9jCsYy35CJ-32" value="" style="shape=partialRectangle;connectable=0;fillColor=none;top=0;left=0;bottom=0;right=0;editable=1;overflow=hidden;whiteSpace=wrap;html=1;fontSize=16;" vertex="1" parent="a0pVStgp1Q9jCsYy35CJ-31">
          <mxGeometry width="30" height="33" as="geometry">
            <mxRectangle width="30" height="33" as="alternateBounds" />
          </mxGeometry>
        </mxCell>
        <mxCell id="a0pVStgp1Q9jCsYy35CJ-33" value="long" style="shape=partialRectangle;connectable=0;fillColor=none;top=0;left=0;bottom=0;right=0;align=left;spacingLeft=6;overflow=hidden;whiteSpace=wrap;html=1;fontSize=16;" vertex="1" parent="a0pVStgp1Q9jCsYy35CJ-31">
          <mxGeometry x="30" width="200" height="33" as="geometry">
            <mxRectangle width="200" height="33" as="alternateBounds" />
          </mxGeometry>
        </mxCell>
        <mxCell id="a0pVStgp1Q9jCsYy35CJ-34" value="" style="shape=tableRow;horizontal=0;startSize=0;swimlaneHead=0;swimlaneBody=0;fillColor=none;collapsible=0;dropTarget=0;points=[[0,0.5],[1,0.5]];portConstraint=eastwest;top=0;left=0;right=0;bottom=0;fontSize=16;" vertex="1" parent="a0pVStgp1Q9jCsYy35CJ-15">
          <mxGeometry y="245" width="230" height="33" as="geometry" />
        </mxCell>
        <mxCell id="a0pVStgp1Q9jCsYy35CJ-35" value="" style="shape=partialRectangle;connectable=0;fillColor=none;top=0;left=0;bottom=0;right=0;editable=1;overflow=hidden;whiteSpace=wrap;html=1;fontSize=16;" vertex="1" parent="a0pVStgp1Q9jCsYy35CJ-34">
          <mxGeometry width="30" height="33" as="geometry">
            <mxRectangle width="30" height="33" as="alternateBounds" />
          </mxGeometry>
        </mxCell>
        <mxCell id="a0pVStgp1Q9jCsYy35CJ-36" value="city&lt;span style=&quot;white-space: pre;&quot;&gt;&#x9;&lt;/span&gt;" style="shape=partialRectangle;connectable=0;fillColor=none;top=0;left=0;bottom=0;right=0;align=left;spacingLeft=6;overflow=hidden;whiteSpace=wrap;html=1;fontSize=16;" vertex="1" parent="a0pVStgp1Q9jCsYy35CJ-34">
          <mxGeometry x="30" width="200" height="33" as="geometry">
            <mxRectangle width="200" height="33" as="alternateBounds" />
          </mxGeometry>
        </mxCell>
        <mxCell id="a0pVStgp1Q9jCsYy35CJ-37" value="" style="shape=tableRow;horizontal=0;startSize=0;swimlaneHead=0;swimlaneBody=0;fillColor=none;collapsible=0;dropTarget=0;points=[[0,0.5],[1,0.5]];portConstraint=eastwest;top=0;left=0;right=0;bottom=0;fontSize=16;" vertex="1" parent="a0pVStgp1Q9jCsYy35CJ-15">
          <mxGeometry y="278" width="230" height="37" as="geometry" />
        </mxCell>
        <mxCell id="a0pVStgp1Q9jCsYy35CJ-38" value="" style="shape=partialRectangle;connectable=0;fillColor=none;top=0;left=0;bottom=0;right=0;editable=1;overflow=hidden;whiteSpace=wrap;html=1;fontSize=16;" vertex="1" parent="a0pVStgp1Q9jCsYy35CJ-37">
          <mxGeometry width="30" height="37" as="geometry">
            <mxRectangle width="30" height="37" as="alternateBounds" />
          </mxGeometry>
        </mxCell>
        <mxCell id="a0pVStgp1Q9jCsYy35CJ-39" value="state" style="shape=partialRectangle;connectable=0;fillColor=none;top=0;left=0;bottom=0;right=0;align=left;spacingLeft=6;overflow=hidden;whiteSpace=wrap;html=1;fontSize=16;" vertex="1" parent="a0pVStgp1Q9jCsYy35CJ-37">
          <mxGeometry x="30" width="200" height="37" as="geometry">
            <mxRectangle width="200" height="37" as="alternateBounds" />
          </mxGeometry>
        </mxCell>
        <mxCell id="a0pVStgp1Q9jCsYy35CJ-40" value="gold.dim_products" style="shape=table;startSize=40;container=1;collapsible=1;childLayout=tableLayout;fixedRows=1;rowLines=0;fontStyle=1;align=center;resizeLast=1;html=1;fontSize=16;fillColor=#fff2cc;strokeColor=#d6b656;rounded=1;" vertex="1" parent="1">
          <mxGeometry x="240" y="720" width="230" height="410" as="geometry" />
        </mxCell>
        <mxCell id="a0pVStgp1Q9jCsYy35CJ-41" value="" style="shape=tableRow;horizontal=0;startSize=0;swimlaneHead=0;swimlaneBody=0;fillColor=none;collapsible=0;dropTarget=0;points=[[0,0.5],[1,0.5]];portConstraint=eastwest;top=0;left=0;right=0;bottom=1;fontSize=16;" vertex="1" parent="a0pVStgp1Q9jCsYy35CJ-40">
          <mxGeometry y="40" width="230" height="40" as="geometry" />
        </mxCell>
        <mxCell id="a0pVStgp1Q9jCsYy35CJ-42" value="PK" style="shape=partialRectangle;connectable=0;fillColor=none;top=0;left=0;bottom=0;right=0;fontStyle=1;overflow=hidden;whiteSpace=wrap;html=1;fontSize=16;" vertex="1" parent="a0pVStgp1Q9jCsYy35CJ-41">
          <mxGeometry width="30" height="40" as="geometry">
            <mxRectangle width="30" height="40" as="alternateBounds" />
          </mxGeometry>
        </mxCell>
        <mxCell id="a0pVStgp1Q9jCsYy35CJ-43" value="product_key" style="shape=partialRectangle;connectable=0;fillColor=none;top=0;left=0;bottom=0;right=0;align=left;spacingLeft=6;fontStyle=5;overflow=hidden;whiteSpace=wrap;html=1;fontSize=16;" vertex="1" parent="a0pVStgp1Q9jCsYy35CJ-41">
          <mxGeometry x="30" width="200" height="40" as="geometry">
            <mxRectangle width="200" height="40" as="alternateBounds" />
          </mxGeometry>
        </mxCell>
        <mxCell id="a0pVStgp1Q9jCsYy35CJ-44" value="" style="shape=tableRow;horizontal=0;startSize=0;swimlaneHead=0;swimlaneBody=0;fillColor=none;collapsible=0;dropTarget=0;points=[[0,0.5],[1,0.5]];portConstraint=eastwest;top=0;left=0;right=0;bottom=0;fontSize=16;" vertex="1" parent="a0pVStgp1Q9jCsYy35CJ-40">
          <mxGeometry y="80" width="230" height="33" as="geometry" />
        </mxCell>
        <mxCell id="a0pVStgp1Q9jCsYy35CJ-45" value="" style="shape=partialRectangle;connectable=0;fillColor=none;top=0;left=0;bottom=0;right=0;editable=1;overflow=hidden;whiteSpace=wrap;html=1;fontSize=16;" vertex="1" parent="a0pVStgp1Q9jCsYy35CJ-44">
          <mxGeometry width="30" height="33" as="geometry">
            <mxRectangle width="30" height="33" as="alternateBounds" />
          </mxGeometry>
        </mxCell>
        <mxCell id="a0pVStgp1Q9jCsYy35CJ-46" value="product_id&lt;span style=&quot;white-space: pre;&quot;&gt;&#x9;&lt;/span&gt;&lt;span style=&quot;white-space: pre;&quot;&gt;&#x9;&lt;/span&gt;&lt;span style=&quot;white-space: pre;&quot;&gt;&#x9;&lt;/span&gt;&lt;span style=&quot;white-space: pre;&quot;&gt;&#x9;&lt;/span&gt;" style="shape=partialRectangle;connectable=0;fillColor=none;top=0;left=0;bottom=0;right=0;align=left;spacingLeft=6;overflow=hidden;whiteSpace=wrap;html=1;fontSize=16;" vertex="1" parent="a0pVStgp1Q9jCsYy35CJ-44">
          <mxGeometry x="30" width="200" height="33" as="geometry">
            <mxRectangle width="200" height="33" as="alternateBounds" />
          </mxGeometry>
        </mxCell>
        <mxCell id="a0pVStgp1Q9jCsYy35CJ-47" value="" style="shape=tableRow;horizontal=0;startSize=0;swimlaneHead=0;swimlaneBody=0;fillColor=none;collapsible=0;dropTarget=0;points=[[0,0.5],[1,0.5]];portConstraint=eastwest;top=0;left=0;right=0;bottom=0;fontSize=16;" vertex="1" parent="a0pVStgp1Q9jCsYy35CJ-40">
          <mxGeometry y="113" width="230" height="33" as="geometry" />
        </mxCell>
        <mxCell id="a0pVStgp1Q9jCsYy35CJ-48" value="" style="shape=partialRectangle;connectable=0;fillColor=none;top=0;left=0;bottom=0;right=0;editable=1;overflow=hidden;whiteSpace=wrap;html=1;fontSize=16;" vertex="1" parent="a0pVStgp1Q9jCsYy35CJ-47">
          <mxGeometry width="30" height="33" as="geometry">
            <mxRectangle width="30" height="33" as="alternateBounds" />
          </mxGeometry>
        </mxCell>
        <mxCell id="a0pVStgp1Q9jCsYy35CJ-49" value="category_name" style="shape=partialRectangle;connectable=0;fillColor=none;top=0;left=0;bottom=0;right=0;align=left;spacingLeft=6;overflow=hidden;whiteSpace=wrap;html=1;fontSize=16;" vertex="1" parent="a0pVStgp1Q9jCsYy35CJ-47">
          <mxGeometry x="30" width="200" height="33" as="geometry">
            <mxRectangle width="200" height="33" as="alternateBounds" />
          </mxGeometry>
        </mxCell>
        <mxCell id="a0pVStgp1Q9jCsYy35CJ-50" value="" style="shape=tableRow;horizontal=0;startSize=0;swimlaneHead=0;swimlaneBody=0;fillColor=none;collapsible=0;dropTarget=0;points=[[0,0.5],[1,0.5]];portConstraint=eastwest;top=0;left=0;right=0;bottom=0;fontSize=16;" vertex="1" parent="a0pVStgp1Q9jCsYy35CJ-40">
          <mxGeometry y="146" width="230" height="33" as="geometry" />
        </mxCell>
        <mxCell id="a0pVStgp1Q9jCsYy35CJ-51" value="" style="shape=partialRectangle;connectable=0;fillColor=none;top=0;left=0;bottom=0;right=0;editable=1;overflow=hidden;whiteSpace=wrap;html=1;fontSize=16;" vertex="1" parent="a0pVStgp1Q9jCsYy35CJ-50">
          <mxGeometry width="30" height="33" as="geometry">
            <mxRectangle width="30" height="33" as="alternateBounds" />
          </mxGeometry>
        </mxCell>
        <mxCell id="a0pVStgp1Q9jCsYy35CJ-52" value="category_name_english" style="shape=partialRectangle;connectable=0;fillColor=none;top=0;left=0;bottom=0;right=0;align=left;spacingLeft=6;overflow=hidden;whiteSpace=wrap;html=1;fontSize=16;" vertex="1" parent="a0pVStgp1Q9jCsYy35CJ-50">
          <mxGeometry x="30" width="200" height="33" as="geometry">
            <mxRectangle width="200" height="33" as="alternateBounds" />
          </mxGeometry>
        </mxCell>
        <mxCell id="a0pVStgp1Q9jCsYy35CJ-53" value="" style="shape=tableRow;horizontal=0;startSize=0;swimlaneHead=0;swimlaneBody=0;fillColor=none;collapsible=0;dropTarget=0;points=[[0,0.5],[1,0.5]];portConstraint=eastwest;top=0;left=0;right=0;bottom=0;fontSize=16;" vertex="1" parent="a0pVStgp1Q9jCsYy35CJ-40">
          <mxGeometry y="179" width="230" height="33" as="geometry" />
        </mxCell>
        <mxCell id="a0pVStgp1Q9jCsYy35CJ-54" value="" style="shape=partialRectangle;connectable=0;fillColor=none;top=0;left=0;bottom=0;right=0;editable=1;overflow=hidden;whiteSpace=wrap;html=1;fontSize=16;" vertex="1" parent="a0pVStgp1Q9jCsYy35CJ-53">
          <mxGeometry width="30" height="33" as="geometry">
            <mxRectangle width="30" height="33" as="alternateBounds" />
          </mxGeometry>
        </mxCell>
        <mxCell id="a0pVStgp1Q9jCsYy35CJ-55" value="name_length" style="shape=partialRectangle;connectable=0;fillColor=none;top=0;left=0;bottom=0;right=0;align=left;spacingLeft=6;overflow=hidden;whiteSpace=wrap;html=1;fontSize=16;" vertex="1" parent="a0pVStgp1Q9jCsYy35CJ-53">
          <mxGeometry x="30" width="200" height="33" as="geometry">
            <mxRectangle width="200" height="33" as="alternateBounds" />
          </mxGeometry>
        </mxCell>
        <mxCell id="a0pVStgp1Q9jCsYy35CJ-56" value="" style="shape=tableRow;horizontal=0;startSize=0;swimlaneHead=0;swimlaneBody=0;fillColor=none;collapsible=0;dropTarget=0;points=[[0,0.5],[1,0.5]];portConstraint=eastwest;top=0;left=0;right=0;bottom=0;fontSize=16;" vertex="1" parent="a0pVStgp1Q9jCsYy35CJ-40">
          <mxGeometry y="212" width="230" height="33" as="geometry" />
        </mxCell>
        <mxCell id="a0pVStgp1Q9jCsYy35CJ-57" value="" style="shape=partialRectangle;connectable=0;fillColor=none;top=0;left=0;bottom=0;right=0;editable=1;overflow=hidden;whiteSpace=wrap;html=1;fontSize=16;" vertex="1" parent="a0pVStgp1Q9jCsYy35CJ-56">
          <mxGeometry width="30" height="33" as="geometry">
            <mxRectangle width="30" height="33" as="alternateBounds" />
          </mxGeometry>
        </mxCell>
        <mxCell id="a0pVStgp1Q9jCsYy35CJ-58" value="description_length" style="shape=partialRectangle;connectable=0;fillColor=none;top=0;left=0;bottom=0;right=0;align=left;spacingLeft=6;overflow=hidden;whiteSpace=wrap;html=1;fontSize=16;" vertex="1" parent="a0pVStgp1Q9jCsYy35CJ-56">
          <mxGeometry x="30" width="200" height="33" as="geometry">
            <mxRectangle width="200" height="33" as="alternateBounds" />
          </mxGeometry>
        </mxCell>
        <mxCell id="a0pVStgp1Q9jCsYy35CJ-59" value="" style="shape=tableRow;horizontal=0;startSize=0;swimlaneHead=0;swimlaneBody=0;fillColor=none;collapsible=0;dropTarget=0;points=[[0,0.5],[1,0.5]];portConstraint=eastwest;top=0;left=0;right=0;bottom=0;fontSize=16;" vertex="1" parent="a0pVStgp1Q9jCsYy35CJ-40">
          <mxGeometry y="245" width="230" height="33" as="geometry" />
        </mxCell>
        <mxCell id="a0pVStgp1Q9jCsYy35CJ-60" value="" style="shape=partialRectangle;connectable=0;fillColor=none;top=0;left=0;bottom=0;right=0;editable=1;overflow=hidden;whiteSpace=wrap;html=1;fontSize=16;" vertex="1" parent="a0pVStgp1Q9jCsYy35CJ-59">
          <mxGeometry width="30" height="33" as="geometry">
            <mxRectangle width="30" height="33" as="alternateBounds" />
          </mxGeometry>
        </mxCell>
        <mxCell id="a0pVStgp1Q9jCsYy35CJ-61" value="photos_qty" style="shape=partialRectangle;connectable=0;fillColor=none;top=0;left=0;bottom=0;right=0;align=left;spacingLeft=6;overflow=hidden;whiteSpace=wrap;html=1;fontSize=16;" vertex="1" parent="a0pVStgp1Q9jCsYy35CJ-59">
          <mxGeometry x="30" width="200" height="33" as="geometry">
            <mxRectangle width="200" height="33" as="alternateBounds" />
          </mxGeometry>
        </mxCell>
        <mxCell id="a0pVStgp1Q9jCsYy35CJ-62" value="" style="shape=tableRow;horizontal=0;startSize=0;swimlaneHead=0;swimlaneBody=0;fillColor=none;collapsible=0;dropTarget=0;points=[[0,0.5],[1,0.5]];portConstraint=eastwest;top=0;left=0;right=0;bottom=0;fontSize=16;" vertex="1" parent="a0pVStgp1Q9jCsYy35CJ-40">
          <mxGeometry y="278" width="230" height="33" as="geometry" />
        </mxCell>
        <mxCell id="a0pVStgp1Q9jCsYy35CJ-63" value="" style="shape=partialRectangle;connectable=0;fillColor=none;top=0;left=0;bottom=0;right=0;editable=1;overflow=hidden;whiteSpace=wrap;html=1;fontSize=16;" vertex="1" parent="a0pVStgp1Q9jCsYy35CJ-62">
          <mxGeometry width="30" height="33" as="geometry">
            <mxRectangle width="30" height="33" as="alternateBounds" />
          </mxGeometry>
        </mxCell>
        <mxCell id="a0pVStgp1Q9jCsYy35CJ-64" value="weight_g" style="shape=partialRectangle;connectable=0;fillColor=none;top=0;left=0;bottom=0;right=0;align=left;spacingLeft=6;overflow=hidden;whiteSpace=wrap;html=1;fontSize=16;" vertex="1" parent="a0pVStgp1Q9jCsYy35CJ-62">
          <mxGeometry x="30" width="200" height="33" as="geometry">
            <mxRectangle width="200" height="33" as="alternateBounds" />
          </mxGeometry>
        </mxCell>
        <mxCell id="a0pVStgp1Q9jCsYy35CJ-65" value="" style="shape=tableRow;horizontal=0;startSize=0;swimlaneHead=0;swimlaneBody=0;fillColor=none;collapsible=0;dropTarget=0;points=[[0,0.5],[1,0.5]];portConstraint=eastwest;top=0;left=0;right=0;bottom=0;fontSize=16;" vertex="1" parent="a0pVStgp1Q9jCsYy35CJ-40">
          <mxGeometry y="311" width="230" height="33" as="geometry" />
        </mxCell>
        <mxCell id="a0pVStgp1Q9jCsYy35CJ-66" value="" style="shape=partialRectangle;connectable=0;fillColor=none;top=0;left=0;bottom=0;right=0;editable=1;overflow=hidden;whiteSpace=wrap;html=1;fontSize=16;" vertex="1" parent="a0pVStgp1Q9jCsYy35CJ-65">
          <mxGeometry width="30" height="33" as="geometry">
            <mxRectangle width="30" height="33" as="alternateBounds" />
          </mxGeometry>
        </mxCell>
        <mxCell id="a0pVStgp1Q9jCsYy35CJ-67" value="length_cm" style="shape=partialRectangle;connectable=0;fillColor=none;top=0;left=0;bottom=0;right=0;align=left;spacingLeft=6;overflow=hidden;whiteSpace=wrap;html=1;fontSize=16;" vertex="1" parent="a0pVStgp1Q9jCsYy35CJ-65">
          <mxGeometry x="30" width="200" height="33" as="geometry">
            <mxRectangle width="200" height="33" as="alternateBounds" />
          </mxGeometry>
        </mxCell>
        <mxCell id="a0pVStgp1Q9jCsYy35CJ-68" value="" style="shape=tableRow;horizontal=0;startSize=0;swimlaneHead=0;swimlaneBody=0;fillColor=none;collapsible=0;dropTarget=0;points=[[0,0.5],[1,0.5]];portConstraint=eastwest;top=0;left=0;right=0;bottom=0;fontSize=16;" vertex="1" parent="a0pVStgp1Q9jCsYy35CJ-40">
          <mxGeometry y="344" width="230" height="33" as="geometry" />
        </mxCell>
        <mxCell id="a0pVStgp1Q9jCsYy35CJ-69" value="" style="shape=partialRectangle;connectable=0;fillColor=none;top=0;left=0;bottom=0;right=0;editable=1;overflow=hidden;whiteSpace=wrap;html=1;fontSize=16;" vertex="1" parent="a0pVStgp1Q9jCsYy35CJ-68">
          <mxGeometry width="30" height="33" as="geometry">
            <mxRectangle width="30" height="33" as="alternateBounds" />
          </mxGeometry>
        </mxCell>
        <mxCell id="a0pVStgp1Q9jCsYy35CJ-70" value="height_cm" style="shape=partialRectangle;connectable=0;fillColor=none;top=0;left=0;bottom=0;right=0;align=left;spacingLeft=6;overflow=hidden;whiteSpace=wrap;html=1;fontSize=16;" vertex="1" parent="a0pVStgp1Q9jCsYy35CJ-68">
          <mxGeometry x="30" width="200" height="33" as="geometry">
            <mxRectangle width="200" height="33" as="alternateBounds" />
          </mxGeometry>
        </mxCell>
        <mxCell id="a0pVStgp1Q9jCsYy35CJ-71" value="" style="shape=tableRow;horizontal=0;startSize=0;swimlaneHead=0;swimlaneBody=0;fillColor=none;collapsible=0;dropTarget=0;points=[[0,0.5],[1,0.5]];portConstraint=eastwest;top=0;left=0;right=0;bottom=0;fontSize=16;" vertex="1" parent="a0pVStgp1Q9jCsYy35CJ-40">
          <mxGeometry y="377" width="230" height="33" as="geometry" />
        </mxCell>
        <mxCell id="a0pVStgp1Q9jCsYy35CJ-72" value="" style="shape=partialRectangle;connectable=0;fillColor=none;top=0;left=0;bottom=0;right=0;editable=1;overflow=hidden;whiteSpace=wrap;html=1;fontSize=16;" vertex="1" parent="a0pVStgp1Q9jCsYy35CJ-71">
          <mxGeometry width="30" height="33" as="geometry">
            <mxRectangle width="30" height="33" as="alternateBounds" />
          </mxGeometry>
        </mxCell>
        <mxCell id="a0pVStgp1Q9jCsYy35CJ-73" value="width_cm" style="shape=partialRectangle;connectable=0;fillColor=none;top=0;left=0;bottom=0;right=0;align=left;spacingLeft=6;overflow=hidden;whiteSpace=wrap;html=1;fontSize=16;" vertex="1" parent="a0pVStgp1Q9jCsYy35CJ-71">
          <mxGeometry x="30" width="200" height="33" as="geometry">
            <mxRectangle width="200" height="33" as="alternateBounds" />
          </mxGeometry>
        </mxCell>
        <mxCell id="a0pVStgp1Q9jCsYy35CJ-74" value="gold.dim_sellers" style="shape=table;startSize=40;container=1;collapsible=1;childLayout=tableLayout;fixedRows=1;rowLines=0;fontStyle=1;align=center;resizeLast=1;html=1;fontSize=16;fillColor=#fff2cc;strokeColor=#d6b656;rounded=1;" vertex="1" parent="1">
          <mxGeometry x="440" y="1190" width="230" height="282" as="geometry" />
        </mxCell>
        <mxCell id="a0pVStgp1Q9jCsYy35CJ-75" value="" style="shape=tableRow;horizontal=0;startSize=0;swimlaneHead=0;swimlaneBody=0;fillColor=none;collapsible=0;dropTarget=0;points=[[0,0.5],[1,0.5]];portConstraint=eastwest;top=0;left=0;right=0;bottom=1;fontSize=16;" vertex="1" parent="a0pVStgp1Q9jCsYy35CJ-74">
          <mxGeometry y="40" width="230" height="40" as="geometry" />
        </mxCell>
        <mxCell id="a0pVStgp1Q9jCsYy35CJ-76" value="PK" style="shape=partialRectangle;connectable=0;fillColor=none;top=0;left=0;bottom=0;right=0;fontStyle=1;overflow=hidden;whiteSpace=wrap;html=1;fontSize=16;" vertex="1" parent="a0pVStgp1Q9jCsYy35CJ-75">
          <mxGeometry width="30" height="40" as="geometry">
            <mxRectangle width="30" height="40" as="alternateBounds" />
          </mxGeometry>
        </mxCell>
        <mxCell id="a0pVStgp1Q9jCsYy35CJ-77" value="seller_key" style="shape=partialRectangle;connectable=0;fillColor=none;top=0;left=0;bottom=0;right=0;align=left;spacingLeft=6;fontStyle=5;overflow=hidden;whiteSpace=wrap;html=1;fontSize=16;" vertex="1" parent="a0pVStgp1Q9jCsYy35CJ-75">
          <mxGeometry x="30" width="200" height="40" as="geometry">
            <mxRectangle width="200" height="40" as="alternateBounds" />
          </mxGeometry>
        </mxCell>
        <mxCell id="a0pVStgp1Q9jCsYy35CJ-78" value="" style="shape=tableRow;horizontal=0;startSize=0;swimlaneHead=0;swimlaneBody=0;fillColor=none;collapsible=0;dropTarget=0;points=[[0,0.5],[1,0.5]];portConstraint=eastwest;top=0;left=0;right=0;bottom=0;fontSize=16;" vertex="1" parent="a0pVStgp1Q9jCsYy35CJ-74">
          <mxGeometry y="80" width="230" height="33" as="geometry" />
        </mxCell>
        <mxCell id="a0pVStgp1Q9jCsYy35CJ-79" value="" style="shape=partialRectangle;connectable=0;fillColor=none;top=0;left=0;bottom=0;right=0;editable=1;overflow=hidden;whiteSpace=wrap;html=1;fontSize=16;" vertex="1" parent="a0pVStgp1Q9jCsYy35CJ-78">
          <mxGeometry width="30" height="33" as="geometry">
            <mxRectangle width="30" height="33" as="alternateBounds" />
          </mxGeometry>
        </mxCell>
        <mxCell id="a0pVStgp1Q9jCsYy35CJ-80" value="seller_id" style="shape=partialRectangle;connectable=0;fillColor=none;top=0;left=0;bottom=0;right=0;align=left;spacingLeft=6;overflow=hidden;whiteSpace=wrap;html=1;fontSize=16;" vertex="1" parent="a0pVStgp1Q9jCsYy35CJ-78">
          <mxGeometry x="30" width="200" height="33" as="geometry">
            <mxRectangle width="200" height="33" as="alternateBounds" />
          </mxGeometry>
        </mxCell>
        <mxCell id="a0pVStgp1Q9jCsYy35CJ-84" value="" style="shape=tableRow;horizontal=0;startSize=0;swimlaneHead=0;swimlaneBody=0;fillColor=none;collapsible=0;dropTarget=0;points=[[0,0.5],[1,0.5]];portConstraint=eastwest;top=0;left=0;right=0;bottom=0;fontSize=16;" vertex="1" parent="a0pVStgp1Q9jCsYy35CJ-74">
          <mxGeometry y="113" width="230" height="33" as="geometry" />
        </mxCell>
        <mxCell id="a0pVStgp1Q9jCsYy35CJ-85" value="" style="shape=partialRectangle;connectable=0;fillColor=none;top=0;left=0;bottom=0;right=0;editable=1;overflow=hidden;whiteSpace=wrap;html=1;fontSize=16;" vertex="1" parent="a0pVStgp1Q9jCsYy35CJ-84">
          <mxGeometry width="30" height="33" as="geometry">
            <mxRectangle width="30" height="33" as="alternateBounds" />
          </mxGeometry>
        </mxCell>
        <mxCell id="a0pVStgp1Q9jCsYy35CJ-86" value="zip_code_prefix" style="shape=partialRectangle;connectable=0;fillColor=none;top=0;left=0;bottom=0;right=0;align=left;spacingLeft=6;overflow=hidden;whiteSpace=wrap;html=1;fontSize=16;" vertex="1" parent="a0pVStgp1Q9jCsYy35CJ-84">
          <mxGeometry x="30" width="200" height="33" as="geometry">
            <mxRectangle width="200" height="33" as="alternateBounds" />
          </mxGeometry>
        </mxCell>
        <mxCell id="a0pVStgp1Q9jCsYy35CJ-87" value="" style="shape=tableRow;horizontal=0;startSize=0;swimlaneHead=0;swimlaneBody=0;fillColor=none;collapsible=0;dropTarget=0;points=[[0,0.5],[1,0.5]];portConstraint=eastwest;top=0;left=0;right=0;bottom=0;fontSize=16;" vertex="1" parent="a0pVStgp1Q9jCsYy35CJ-74">
          <mxGeometry y="146" width="230" height="33" as="geometry" />
        </mxCell>
        <mxCell id="a0pVStgp1Q9jCsYy35CJ-88" value="" style="shape=partialRectangle;connectable=0;fillColor=none;top=0;left=0;bottom=0;right=0;editable=1;overflow=hidden;whiteSpace=wrap;html=1;fontSize=16;" vertex="1" parent="a0pVStgp1Q9jCsYy35CJ-87">
          <mxGeometry width="30" height="33" as="geometry">
            <mxRectangle width="30" height="33" as="alternateBounds" />
          </mxGeometry>
        </mxCell>
        <mxCell id="a0pVStgp1Q9jCsYy35CJ-89" value="lat" style="shape=partialRectangle;connectable=0;fillColor=none;top=0;left=0;bottom=0;right=0;align=left;spacingLeft=6;overflow=hidden;whiteSpace=wrap;html=1;fontSize=16;" vertex="1" parent="a0pVStgp1Q9jCsYy35CJ-87">
          <mxGeometry x="30" width="200" height="33" as="geometry">
            <mxRectangle width="200" height="33" as="alternateBounds" />
          </mxGeometry>
        </mxCell>
        <mxCell id="a0pVStgp1Q9jCsYy35CJ-90" value="" style="shape=tableRow;horizontal=0;startSize=0;swimlaneHead=0;swimlaneBody=0;fillColor=none;collapsible=0;dropTarget=0;points=[[0,0.5],[1,0.5]];portConstraint=eastwest;top=0;left=0;right=0;bottom=0;fontSize=16;" vertex="1" parent="a0pVStgp1Q9jCsYy35CJ-74">
          <mxGeometry y="179" width="230" height="33" as="geometry" />
        </mxCell>
        <mxCell id="a0pVStgp1Q9jCsYy35CJ-91" value="" style="shape=partialRectangle;connectable=0;fillColor=none;top=0;left=0;bottom=0;right=0;editable=1;overflow=hidden;whiteSpace=wrap;html=1;fontSize=16;" vertex="1" parent="a0pVStgp1Q9jCsYy35CJ-90">
          <mxGeometry width="30" height="33" as="geometry">
            <mxRectangle width="30" height="33" as="alternateBounds" />
          </mxGeometry>
        </mxCell>
        <mxCell id="a0pVStgp1Q9jCsYy35CJ-92" value="long" style="shape=partialRectangle;connectable=0;fillColor=none;top=0;left=0;bottom=0;right=0;align=left;spacingLeft=6;overflow=hidden;whiteSpace=wrap;html=1;fontSize=16;" vertex="1" parent="a0pVStgp1Q9jCsYy35CJ-90">
          <mxGeometry x="30" width="200" height="33" as="geometry">
            <mxRectangle width="200" height="33" as="alternateBounds" />
          </mxGeometry>
        </mxCell>
        <mxCell id="a0pVStgp1Q9jCsYy35CJ-93" value="" style="shape=tableRow;horizontal=0;startSize=0;swimlaneHead=0;swimlaneBody=0;fillColor=none;collapsible=0;dropTarget=0;points=[[0,0.5],[1,0.5]];portConstraint=eastwest;top=0;left=0;right=0;bottom=0;fontSize=16;" vertex="1" parent="a0pVStgp1Q9jCsYy35CJ-74">
          <mxGeometry y="212" width="230" height="33" as="geometry" />
        </mxCell>
        <mxCell id="a0pVStgp1Q9jCsYy35CJ-94" value="" style="shape=partialRectangle;connectable=0;fillColor=none;top=0;left=0;bottom=0;right=0;editable=1;overflow=hidden;whiteSpace=wrap;html=1;fontSize=16;" vertex="1" parent="a0pVStgp1Q9jCsYy35CJ-93">
          <mxGeometry width="30" height="33" as="geometry">
            <mxRectangle width="30" height="33" as="alternateBounds" />
          </mxGeometry>
        </mxCell>
        <mxCell id="a0pVStgp1Q9jCsYy35CJ-95" value="city&lt;span style=&quot;white-space: pre;&quot;&gt;&#x9;&lt;/span&gt;" style="shape=partialRectangle;connectable=0;fillColor=none;top=0;left=0;bottom=0;right=0;align=left;spacingLeft=6;overflow=hidden;whiteSpace=wrap;html=1;fontSize=16;" vertex="1" parent="a0pVStgp1Q9jCsYy35CJ-93">
          <mxGeometry x="30" width="200" height="33" as="geometry">
            <mxRectangle width="200" height="33" as="alternateBounds" />
          </mxGeometry>
        </mxCell>
        <mxCell id="a0pVStgp1Q9jCsYy35CJ-96" value="" style="shape=tableRow;horizontal=0;startSize=0;swimlaneHead=0;swimlaneBody=0;fillColor=none;collapsible=0;dropTarget=0;points=[[0,0.5],[1,0.5]];portConstraint=eastwest;top=0;left=0;right=0;bottom=0;fontSize=16;" vertex="1" parent="a0pVStgp1Q9jCsYy35CJ-74">
          <mxGeometry y="245" width="230" height="37" as="geometry" />
        </mxCell>
        <mxCell id="a0pVStgp1Q9jCsYy35CJ-97" value="" style="shape=partialRectangle;connectable=0;fillColor=none;top=0;left=0;bottom=0;right=0;editable=1;overflow=hidden;whiteSpace=wrap;html=1;fontSize=16;" vertex="1" parent="a0pVStgp1Q9jCsYy35CJ-96">
          <mxGeometry width="30" height="37" as="geometry">
            <mxRectangle width="30" height="37" as="alternateBounds" />
          </mxGeometry>
        </mxCell>
        <mxCell id="a0pVStgp1Q9jCsYy35CJ-98" value="state" style="shape=partialRectangle;connectable=0;fillColor=none;top=0;left=0;bottom=0;right=0;align=left;spacingLeft=6;overflow=hidden;whiteSpace=wrap;html=1;fontSize=16;" vertex="1" parent="a0pVStgp1Q9jCsYy35CJ-96">
          <mxGeometry x="30" width="200" height="37" as="geometry">
            <mxRectangle width="200" height="37" as="alternateBounds" />
          </mxGeometry>
        </mxCell>
        <mxCell id="a0pVStgp1Q9jCsYy35CJ-99" value="gold.dim_reviews" style="shape=table;startSize=40;container=1;collapsible=1;childLayout=tableLayout;fixedRows=1;rowLines=0;fontStyle=1;align=center;resizeLast=1;html=1;fontSize=16;fillColor=#fff2cc;strokeColor=#d6b656;rounded=1;" vertex="1" parent="1">
          <mxGeometry x="1170" y="580" width="240" height="320" as="geometry" />
        </mxCell>
        <mxCell id="a0pVStgp1Q9jCsYy35CJ-100" value="" style="shape=tableRow;horizontal=0;startSize=0;swimlaneHead=0;swimlaneBody=0;fillColor=none;collapsible=0;dropTarget=0;points=[[0,0.5],[1,0.5]];portConstraint=eastwest;top=0;left=0;right=0;bottom=1;fontSize=16;" vertex="1" parent="a0pVStgp1Q9jCsYy35CJ-99">
          <mxGeometry y="40" width="240" height="40" as="geometry" />
        </mxCell>
        <mxCell id="a0pVStgp1Q9jCsYy35CJ-101" value="PK" style="shape=partialRectangle;connectable=0;fillColor=none;top=0;left=0;bottom=0;right=0;fontStyle=1;overflow=hidden;whiteSpace=wrap;html=1;fontSize=16;" vertex="1" parent="a0pVStgp1Q9jCsYy35CJ-100">
          <mxGeometry width="30" height="40" as="geometry">
            <mxRectangle width="30" height="40" as="alternateBounds" />
          </mxGeometry>
        </mxCell>
        <mxCell id="a0pVStgp1Q9jCsYy35CJ-102" value="review_key" style="shape=partialRectangle;connectable=0;fillColor=none;top=0;left=0;bottom=0;right=0;align=left;spacingLeft=6;fontStyle=5;overflow=hidden;whiteSpace=wrap;html=1;fontSize=16;" vertex="1" parent="a0pVStgp1Q9jCsYy35CJ-100">
          <mxGeometry x="30" width="210" height="40" as="geometry">
            <mxRectangle width="210" height="40" as="alternateBounds" />
          </mxGeometry>
        </mxCell>
        <mxCell id="a0pVStgp1Q9jCsYy35CJ-103" value="" style="shape=tableRow;horizontal=0;startSize=0;swimlaneHead=0;swimlaneBody=0;fillColor=none;collapsible=0;dropTarget=0;points=[[0,0.5],[1,0.5]];portConstraint=eastwest;top=0;left=0;right=0;bottom=0;fontSize=16;" vertex="1" parent="a0pVStgp1Q9jCsYy35CJ-99">
          <mxGeometry y="80" width="240" height="33" as="geometry" />
        </mxCell>
        <mxCell id="a0pVStgp1Q9jCsYy35CJ-104" value="" style="shape=partialRectangle;connectable=0;fillColor=none;top=0;left=0;bottom=0;right=0;editable=1;overflow=hidden;whiteSpace=wrap;html=1;fontSize=16;" vertex="1" parent="a0pVStgp1Q9jCsYy35CJ-103">
          <mxGeometry width="30" height="33" as="geometry">
            <mxRectangle width="30" height="33" as="alternateBounds" />
          </mxGeometry>
        </mxCell>
        <mxCell id="a0pVStgp1Q9jCsYy35CJ-105" value="order_id" style="shape=partialRectangle;connectable=0;fillColor=none;top=0;left=0;bottom=0;right=0;align=left;spacingLeft=6;overflow=hidden;whiteSpace=wrap;html=1;fontSize=16;" vertex="1" parent="a0pVStgp1Q9jCsYy35CJ-103">
          <mxGeometry x="30" width="210" height="33" as="geometry">
            <mxRectangle width="210" height="33" as="alternateBounds" />
          </mxGeometry>
        </mxCell>
        <mxCell id="a0pVStgp1Q9jCsYy35CJ-106" value="" style="shape=tableRow;horizontal=0;startSize=0;swimlaneHead=0;swimlaneBody=0;fillColor=none;collapsible=0;dropTarget=0;points=[[0,0.5],[1,0.5]];portConstraint=eastwest;top=0;left=0;right=0;bottom=0;fontSize=16;" vertex="1" parent="a0pVStgp1Q9jCsYy35CJ-99">
          <mxGeometry y="113" width="240" height="33" as="geometry" />
        </mxCell>
        <mxCell id="a0pVStgp1Q9jCsYy35CJ-107" value="" style="shape=partialRectangle;connectable=0;fillColor=none;top=0;left=0;bottom=0;right=0;editable=1;overflow=hidden;whiteSpace=wrap;html=1;fontSize=16;" vertex="1" parent="a0pVStgp1Q9jCsYy35CJ-106">
          <mxGeometry width="30" height="33" as="geometry">
            <mxRectangle width="30" height="33" as="alternateBounds" />
          </mxGeometry>
        </mxCell>
        <mxCell id="a0pVStgp1Q9jCsYy35CJ-108" value="review_id" style="shape=partialRectangle;connectable=0;fillColor=none;top=0;left=0;bottom=0;right=0;align=left;spacingLeft=6;overflow=hidden;whiteSpace=wrap;html=1;fontSize=16;" vertex="1" parent="a0pVStgp1Q9jCsYy35CJ-106">
          <mxGeometry x="30" width="210" height="33" as="geometry">
            <mxRectangle width="210" height="33" as="alternateBounds" />
          </mxGeometry>
        </mxCell>
        <mxCell id="a0pVStgp1Q9jCsYy35CJ-109" value="" style="shape=tableRow;horizontal=0;startSize=0;swimlaneHead=0;swimlaneBody=0;fillColor=none;collapsible=0;dropTarget=0;points=[[0,0.5],[1,0.5]];portConstraint=eastwest;top=0;left=0;right=0;bottom=0;fontSize=16;" vertex="1" parent="a0pVStgp1Q9jCsYy35CJ-99">
          <mxGeometry y="146" width="240" height="33" as="geometry" />
        </mxCell>
        <mxCell id="a0pVStgp1Q9jCsYy35CJ-110" value="" style="shape=partialRectangle;connectable=0;fillColor=none;top=0;left=0;bottom=0;right=0;editable=1;overflow=hidden;whiteSpace=wrap;html=1;fontSize=16;" vertex="1" parent="a0pVStgp1Q9jCsYy35CJ-109">
          <mxGeometry width="30" height="33" as="geometry">
            <mxRectangle width="30" height="33" as="alternateBounds" />
          </mxGeometry>
        </mxCell>
        <mxCell id="a0pVStgp1Q9jCsYy35CJ-111" value="review_score" style="shape=partialRectangle;connectable=0;fillColor=none;top=0;left=0;bottom=0;right=0;align=left;spacingLeft=6;overflow=hidden;whiteSpace=wrap;html=1;fontSize=16;" vertex="1" parent="a0pVStgp1Q9jCsYy35CJ-109">
          <mxGeometry x="30" width="210" height="33" as="geometry">
            <mxRectangle width="210" height="33" as="alternateBounds" />
          </mxGeometry>
        </mxCell>
        <mxCell id="a0pVStgp1Q9jCsYy35CJ-112" value="" style="shape=tableRow;horizontal=0;startSize=0;swimlaneHead=0;swimlaneBody=0;fillColor=none;collapsible=0;dropTarget=0;points=[[0,0.5],[1,0.5]];portConstraint=eastwest;top=0;left=0;right=0;bottom=0;fontSize=16;" vertex="1" parent="a0pVStgp1Q9jCsYy35CJ-99">
          <mxGeometry y="179" width="240" height="33" as="geometry" />
        </mxCell>
        <mxCell id="a0pVStgp1Q9jCsYy35CJ-113" value="" style="shape=partialRectangle;connectable=0;fillColor=none;top=0;left=0;bottom=0;right=0;editable=1;overflow=hidden;whiteSpace=wrap;html=1;fontSize=16;" vertex="1" parent="a0pVStgp1Q9jCsYy35CJ-112">
          <mxGeometry width="30" height="33" as="geometry">
            <mxRectangle width="30" height="33" as="alternateBounds" />
          </mxGeometry>
        </mxCell>
        <mxCell id="a0pVStgp1Q9jCsYy35CJ-114" value="review_comment_title" style="shape=partialRectangle;connectable=0;fillColor=none;top=0;left=0;bottom=0;right=0;align=left;spacingLeft=6;overflow=hidden;whiteSpace=wrap;html=1;fontSize=16;" vertex="1" parent="a0pVStgp1Q9jCsYy35CJ-112">
          <mxGeometry x="30" width="210" height="33" as="geometry">
            <mxRectangle width="210" height="33" as="alternateBounds" />
          </mxGeometry>
        </mxCell>
        <mxCell id="a0pVStgp1Q9jCsYy35CJ-115" value="" style="shape=tableRow;horizontal=0;startSize=0;swimlaneHead=0;swimlaneBody=0;fillColor=none;collapsible=0;dropTarget=0;points=[[0,0.5],[1,0.5]];portConstraint=eastwest;top=0;left=0;right=0;bottom=0;fontSize=16;" vertex="1" parent="a0pVStgp1Q9jCsYy35CJ-99">
          <mxGeometry y="212" width="240" height="33" as="geometry" />
        </mxCell>
        <mxCell id="a0pVStgp1Q9jCsYy35CJ-116" value="" style="shape=partialRectangle;connectable=0;fillColor=none;top=0;left=0;bottom=0;right=0;editable=1;overflow=hidden;whiteSpace=wrap;html=1;fontSize=16;" vertex="1" parent="a0pVStgp1Q9jCsYy35CJ-115">
          <mxGeometry width="30" height="33" as="geometry">
            <mxRectangle width="30" height="33" as="alternateBounds" />
          </mxGeometry>
        </mxCell>
        <mxCell id="a0pVStgp1Q9jCsYy35CJ-117" value="review_comment_message" style="shape=partialRectangle;connectable=0;fillColor=none;top=0;left=0;bottom=0;right=0;align=left;spacingLeft=6;overflow=hidden;whiteSpace=wrap;html=1;fontSize=16;" vertex="1" parent="a0pVStgp1Q9jCsYy35CJ-115">
          <mxGeometry x="30" width="210" height="33" as="geometry">
            <mxRectangle width="210" height="33" as="alternateBounds" />
          </mxGeometry>
        </mxCell>
        <mxCell id="a0pVStgp1Q9jCsYy35CJ-118" value="" style="shape=tableRow;horizontal=0;startSize=0;swimlaneHead=0;swimlaneBody=0;fillColor=none;collapsible=0;dropTarget=0;points=[[0,0.5],[1,0.5]];portConstraint=eastwest;top=0;left=0;right=0;bottom=0;fontSize=16;" vertex="1" parent="a0pVStgp1Q9jCsYy35CJ-99">
          <mxGeometry y="245" width="240" height="33" as="geometry" />
        </mxCell>
        <mxCell id="a0pVStgp1Q9jCsYy35CJ-119" value="" style="shape=partialRectangle;connectable=0;fillColor=none;top=0;left=0;bottom=0;right=0;editable=1;overflow=hidden;whiteSpace=wrap;html=1;fontSize=16;" vertex="1" parent="a0pVStgp1Q9jCsYy35CJ-118">
          <mxGeometry width="30" height="33" as="geometry">
            <mxRectangle width="30" height="33" as="alternateBounds" />
          </mxGeometry>
        </mxCell>
        <mxCell id="a0pVStgp1Q9jCsYy35CJ-120" value="review_creation_date" style="shape=partialRectangle;connectable=0;fillColor=none;top=0;left=0;bottom=0;right=0;align=left;spacingLeft=6;overflow=hidden;whiteSpace=wrap;html=1;fontSize=16;" vertex="1" parent="a0pVStgp1Q9jCsYy35CJ-118">
          <mxGeometry x="30" width="210" height="33" as="geometry">
            <mxRectangle width="210" height="33" as="alternateBounds" />
          </mxGeometry>
        </mxCell>
        <mxCell id="a0pVStgp1Q9jCsYy35CJ-121" value="" style="shape=tableRow;horizontal=0;startSize=0;swimlaneHead=0;swimlaneBody=0;fillColor=none;collapsible=0;dropTarget=0;points=[[0,0.5],[1,0.5]];portConstraint=eastwest;top=0;left=0;right=0;bottom=0;fontSize=16;" vertex="1" parent="a0pVStgp1Q9jCsYy35CJ-99">
          <mxGeometry y="278" width="240" height="37" as="geometry" />
        </mxCell>
        <mxCell id="a0pVStgp1Q9jCsYy35CJ-122" value="" style="shape=partialRectangle;connectable=0;fillColor=none;top=0;left=0;bottom=0;right=0;editable=1;overflow=hidden;whiteSpace=wrap;html=1;fontSize=16;" vertex="1" parent="a0pVStgp1Q9jCsYy35CJ-121">
          <mxGeometry width="30" height="37" as="geometry">
            <mxRectangle width="30" height="37" as="alternateBounds" />
          </mxGeometry>
        </mxCell>
        <mxCell id="a0pVStgp1Q9jCsYy35CJ-123" value="review_answer_timestamp" style="shape=partialRectangle;connectable=0;fillColor=none;top=0;left=0;bottom=0;right=0;align=left;spacingLeft=6;overflow=hidden;whiteSpace=wrap;html=1;fontSize=16;" vertex="1" parent="a0pVStgp1Q9jCsYy35CJ-121">
          <mxGeometry x="30" width="210" height="37" as="geometry">
            <mxRectangle width="210" height="37" as="alternateBounds" />
          </mxGeometry>
        </mxCell>
        <mxCell id="a0pVStgp1Q9jCsYy35CJ-124" value="gold.dim_payment" style="shape=table;startSize=40;container=1;collapsible=1;childLayout=tableLayout;fixedRows=1;rowLines=0;fontStyle=1;align=center;resizeLast=1;html=1;fontSize=16;fillColor=#fff2cc;strokeColor=#d6b656;rounded=1;" vertex="1" parent="1">
          <mxGeometry x="1180" y="1220" width="230" height="247" as="geometry" />
        </mxCell>
        <mxCell id="a0pVStgp1Q9jCsYy35CJ-125" value="" style="shape=tableRow;horizontal=0;startSize=0;swimlaneHead=0;swimlaneBody=0;fillColor=none;collapsible=0;dropTarget=0;points=[[0,0.5],[1,0.5]];portConstraint=eastwest;top=0;left=0;right=0;bottom=1;fontSize=16;" vertex="1" parent="a0pVStgp1Q9jCsYy35CJ-124">
          <mxGeometry y="40" width="230" height="40" as="geometry" />
        </mxCell>
        <mxCell id="a0pVStgp1Q9jCsYy35CJ-126" value="PK" style="shape=partialRectangle;connectable=0;fillColor=none;top=0;left=0;bottom=0;right=0;fontStyle=1;overflow=hidden;whiteSpace=wrap;html=1;fontSize=16;" vertex="1" parent="a0pVStgp1Q9jCsYy35CJ-125">
          <mxGeometry width="30" height="40" as="geometry">
            <mxRectangle width="30" height="40" as="alternateBounds" />
          </mxGeometry>
        </mxCell>
        <mxCell id="a0pVStgp1Q9jCsYy35CJ-127" value="payment_key" style="shape=partialRectangle;connectable=0;fillColor=none;top=0;left=0;bottom=0;right=0;align=left;spacingLeft=6;fontStyle=5;overflow=hidden;whiteSpace=wrap;html=1;fontSize=16;" vertex="1" parent="a0pVStgp1Q9jCsYy35CJ-125">
          <mxGeometry x="30" width="200" height="40" as="geometry">
            <mxRectangle width="200" height="40" as="alternateBounds" />
          </mxGeometry>
        </mxCell>
        <mxCell id="a0pVStgp1Q9jCsYy35CJ-128" value="" style="shape=tableRow;horizontal=0;startSize=0;swimlaneHead=0;swimlaneBody=0;fillColor=none;collapsible=0;dropTarget=0;points=[[0,0.5],[1,0.5]];portConstraint=eastwest;top=0;left=0;right=0;bottom=0;fontSize=16;" vertex="1" parent="a0pVStgp1Q9jCsYy35CJ-124">
          <mxGeometry y="80" width="230" height="33" as="geometry" />
        </mxCell>
        <mxCell id="a0pVStgp1Q9jCsYy35CJ-129" value="" style="shape=partialRectangle;connectable=0;fillColor=none;top=0;left=0;bottom=0;right=0;editable=1;overflow=hidden;whiteSpace=wrap;html=1;fontSize=16;" vertex="1" parent="a0pVStgp1Q9jCsYy35CJ-128">
          <mxGeometry width="30" height="33" as="geometry">
            <mxRectangle width="30" height="33" as="alternateBounds" />
          </mxGeometry>
        </mxCell>
        <mxCell id="a0pVStgp1Q9jCsYy35CJ-130" value="order_id" style="shape=partialRectangle;connectable=0;fillColor=none;top=0;left=0;bottom=0;right=0;align=left;spacingLeft=6;overflow=hidden;whiteSpace=wrap;html=1;fontSize=16;" vertex="1" parent="a0pVStgp1Q9jCsYy35CJ-128">
          <mxGeometry x="30" width="200" height="33" as="geometry">
            <mxRectangle width="200" height="33" as="alternateBounds" />
          </mxGeometry>
        </mxCell>
        <mxCell id="a0pVStgp1Q9jCsYy35CJ-131" value="" style="shape=tableRow;horizontal=0;startSize=0;swimlaneHead=0;swimlaneBody=0;fillColor=none;collapsible=0;dropTarget=0;points=[[0,0.5],[1,0.5]];portConstraint=eastwest;top=0;left=0;right=0;bottom=0;fontSize=16;" vertex="1" parent="a0pVStgp1Q9jCsYy35CJ-124">
          <mxGeometry y="113" width="230" height="33" as="geometry" />
        </mxCell>
        <mxCell id="a0pVStgp1Q9jCsYy35CJ-132" value="" style="shape=partialRectangle;connectable=0;fillColor=none;top=0;left=0;bottom=0;right=0;editable=1;overflow=hidden;whiteSpace=wrap;html=1;fontSize=16;" vertex="1" parent="a0pVStgp1Q9jCsYy35CJ-131">
          <mxGeometry width="30" height="33" as="geometry">
            <mxRectangle width="30" height="33" as="alternateBounds" />
          </mxGeometry>
        </mxCell>
        <mxCell id="a0pVStgp1Q9jCsYy35CJ-133" value="payment_sequential" style="shape=partialRectangle;connectable=0;fillColor=none;top=0;left=0;bottom=0;right=0;align=left;spacingLeft=6;overflow=hidden;whiteSpace=wrap;html=1;fontSize=16;" vertex="1" parent="a0pVStgp1Q9jCsYy35CJ-131">
          <mxGeometry x="30" width="200" height="33" as="geometry">
            <mxRectangle width="200" height="33" as="alternateBounds" />
          </mxGeometry>
        </mxCell>
        <mxCell id="a0pVStgp1Q9jCsYy35CJ-134" value="" style="shape=tableRow;horizontal=0;startSize=0;swimlaneHead=0;swimlaneBody=0;fillColor=none;collapsible=0;dropTarget=0;points=[[0,0.5],[1,0.5]];portConstraint=eastwest;top=0;left=0;right=0;bottom=0;fontSize=16;" vertex="1" parent="a0pVStgp1Q9jCsYy35CJ-124">
          <mxGeometry y="146" width="230" height="33" as="geometry" />
        </mxCell>
        <mxCell id="a0pVStgp1Q9jCsYy35CJ-135" value="" style="shape=partialRectangle;connectable=0;fillColor=none;top=0;left=0;bottom=0;right=0;editable=1;overflow=hidden;whiteSpace=wrap;html=1;fontSize=16;" vertex="1" parent="a0pVStgp1Q9jCsYy35CJ-134">
          <mxGeometry width="30" height="33" as="geometry">
            <mxRectangle width="30" height="33" as="alternateBounds" />
          </mxGeometry>
        </mxCell>
        <mxCell id="a0pVStgp1Q9jCsYy35CJ-136" value="payment_type" style="shape=partialRectangle;connectable=0;fillColor=none;top=0;left=0;bottom=0;right=0;align=left;spacingLeft=6;overflow=hidden;whiteSpace=wrap;html=1;fontSize=16;" vertex="1" parent="a0pVStgp1Q9jCsYy35CJ-134">
          <mxGeometry x="30" width="200" height="33" as="geometry">
            <mxRectangle width="200" height="33" as="alternateBounds" />
          </mxGeometry>
        </mxCell>
        <mxCell id="a0pVStgp1Q9jCsYy35CJ-137" value="" style="shape=tableRow;horizontal=0;startSize=0;swimlaneHead=0;swimlaneBody=0;fillColor=none;collapsible=0;dropTarget=0;points=[[0,0.5],[1,0.5]];portConstraint=eastwest;top=0;left=0;right=0;bottom=0;fontSize=16;" vertex="1" parent="a0pVStgp1Q9jCsYy35CJ-124">
          <mxGeometry y="179" width="230" height="33" as="geometry" />
        </mxCell>
        <mxCell id="a0pVStgp1Q9jCsYy35CJ-138" value="" style="shape=partialRectangle;connectable=0;fillColor=none;top=0;left=0;bottom=0;right=0;editable=1;overflow=hidden;whiteSpace=wrap;html=1;fontSize=16;" vertex="1" parent="a0pVStgp1Q9jCsYy35CJ-137">
          <mxGeometry width="30" height="33" as="geometry">
            <mxRectangle width="30" height="33" as="alternateBounds" />
          </mxGeometry>
        </mxCell>
        <mxCell id="a0pVStgp1Q9jCsYy35CJ-139" value="payment_installments" style="shape=partialRectangle;connectable=0;fillColor=none;top=0;left=0;bottom=0;right=0;align=left;spacingLeft=6;overflow=hidden;whiteSpace=wrap;html=1;fontSize=16;" vertex="1" parent="a0pVStgp1Q9jCsYy35CJ-137">
          <mxGeometry x="30" width="200" height="33" as="geometry">
            <mxRectangle width="200" height="33" as="alternateBounds" />
          </mxGeometry>
        </mxCell>
        <mxCell id="a0pVStgp1Q9jCsYy35CJ-140" value="" style="shape=tableRow;horizontal=0;startSize=0;swimlaneHead=0;swimlaneBody=0;fillColor=none;collapsible=0;dropTarget=0;points=[[0,0.5],[1,0.5]];portConstraint=eastwest;top=0;left=0;right=0;bottom=0;fontSize=16;" vertex="1" parent="a0pVStgp1Q9jCsYy35CJ-124">
          <mxGeometry y="212" width="230" height="33" as="geometry" />
        </mxCell>
        <mxCell id="a0pVStgp1Q9jCsYy35CJ-141" value="" style="shape=partialRectangle;connectable=0;fillColor=none;top=0;left=0;bottom=0;right=0;editable=1;overflow=hidden;whiteSpace=wrap;html=1;fontSize=16;" vertex="1" parent="a0pVStgp1Q9jCsYy35CJ-140">
          <mxGeometry width="30" height="33" as="geometry">
            <mxRectangle width="30" height="33" as="alternateBounds" />
          </mxGeometry>
        </mxCell>
        <mxCell id="a0pVStgp1Q9jCsYy35CJ-142" value="payment_value" style="shape=partialRectangle;connectable=0;fillColor=none;top=0;left=0;bottom=0;right=0;align=left;spacingLeft=6;overflow=hidden;whiteSpace=wrap;html=1;fontSize=16;" vertex="1" parent="a0pVStgp1Q9jCsYy35CJ-140">
          <mxGeometry x="30" width="200" height="33" as="geometry">
            <mxRectangle width="200" height="33" as="alternateBounds" />
          </mxGeometry>
        </mxCell>
        <mxCell id="a0pVStgp1Q9jCsYy35CJ-152" value="gold.fact_orders" style="shape=table;startSize=40;container=1;collapsible=1;childLayout=tableLayout;fixedRows=1;rowLines=0;fontStyle=1;align=center;resizeLast=1;html=1;fontSize=16;fillColor=#dae8fc;strokeColor=#6c8ebf;rounded=1;" vertex="1" parent="1">
          <mxGeometry x="800" y="660" width="250" height="575" as="geometry" />
        </mxCell>
        <mxCell id="a0pVStgp1Q9jCsYy35CJ-153" value="" style="shape=tableRow;horizontal=0;startSize=0;swimlaneHead=0;swimlaneBody=0;fillColor=none;collapsible=0;dropTarget=0;points=[[0,0.5],[1,0.5]];portConstraint=eastwest;top=0;left=0;right=0;bottom=1;fontSize=16;" vertex="1" parent="a0pVStgp1Q9jCsYy35CJ-152">
          <mxGeometry y="40" width="250" height="40" as="geometry" />
        </mxCell>
        <mxCell id="a0pVStgp1Q9jCsYy35CJ-154" value="PK" style="shape=partialRectangle;connectable=0;fillColor=none;top=0;left=0;bottom=0;right=0;fontStyle=1;overflow=hidden;whiteSpace=wrap;html=1;fontSize=16;" vertex="1" parent="a0pVStgp1Q9jCsYy35CJ-153">
          <mxGeometry width="30" height="40" as="geometry">
            <mxRectangle width="30" height="40" as="alternateBounds" />
          </mxGeometry>
        </mxCell>
        <mxCell id="a0pVStgp1Q9jCsYy35CJ-155" value="order_id" style="shape=partialRectangle;connectable=0;fillColor=none;top=0;left=0;bottom=0;right=0;align=left;spacingLeft=6;fontStyle=5;overflow=hidden;whiteSpace=wrap;html=1;fontSize=16;" vertex="1" parent="a0pVStgp1Q9jCsYy35CJ-153">
          <mxGeometry x="30" width="220" height="40" as="geometry">
            <mxRectangle width="220" height="40" as="alternateBounds" />
          </mxGeometry>
        </mxCell>
        <mxCell id="a0pVStgp1Q9jCsYy35CJ-156" value="" style="shape=tableRow;horizontal=0;startSize=0;swimlaneHead=0;swimlaneBody=0;fillColor=none;collapsible=0;dropTarget=0;points=[[0,0.5],[1,0.5]];portConstraint=eastwest;top=0;left=0;right=0;bottom=0;fontSize=16;" vertex="1" parent="a0pVStgp1Q9jCsYy35CJ-152">
          <mxGeometry y="80" width="250" height="33" as="geometry" />
        </mxCell>
        <mxCell id="a0pVStgp1Q9jCsYy35CJ-157" value="" style="shape=partialRectangle;connectable=0;fillColor=none;top=0;left=0;bottom=0;right=0;editable=1;overflow=hidden;whiteSpace=wrap;html=1;fontSize=16;" vertex="1" parent="a0pVStgp1Q9jCsYy35CJ-156">
          <mxGeometry width="30" height="33" as="geometry">
            <mxRectangle width="30" height="33" as="alternateBounds" />
          </mxGeometry>
        </mxCell>
        <mxCell id="a0pVStgp1Q9jCsYy35CJ-158" value="customer_key" style="shape=partialRectangle;connectable=0;fillColor=none;top=0;left=0;bottom=0;right=0;align=left;spacingLeft=6;overflow=hidden;whiteSpace=wrap;html=1;fontSize=16;" vertex="1" parent="a0pVStgp1Q9jCsYy35CJ-156">
          <mxGeometry x="30" width="220" height="33" as="geometry">
            <mxRectangle width="220" height="33" as="alternateBounds" />
          </mxGeometry>
        </mxCell>
        <mxCell id="a0pVStgp1Q9jCsYy35CJ-159" value="" style="shape=tableRow;horizontal=0;startSize=0;swimlaneHead=0;swimlaneBody=0;fillColor=none;collapsible=0;dropTarget=0;points=[[0,0.5],[1,0.5]];portConstraint=eastwest;top=0;left=0;right=0;bottom=0;fontSize=16;" vertex="1" parent="a0pVStgp1Q9jCsYy35CJ-152">
          <mxGeometry y="113" width="250" height="33" as="geometry" />
        </mxCell>
        <mxCell id="a0pVStgp1Q9jCsYy35CJ-160" value="" style="shape=partialRectangle;connectable=0;fillColor=none;top=0;left=0;bottom=0;right=0;editable=1;overflow=hidden;whiteSpace=wrap;html=1;fontSize=16;" vertex="1" parent="a0pVStgp1Q9jCsYy35CJ-159">
          <mxGeometry width="30" height="33" as="geometry">
            <mxRectangle width="30" height="33" as="alternateBounds" />
          </mxGeometry>
        </mxCell>
        <mxCell id="a0pVStgp1Q9jCsYy35CJ-161" value="product_key" style="shape=partialRectangle;connectable=0;fillColor=none;top=0;left=0;bottom=0;right=0;align=left;spacingLeft=6;overflow=hidden;whiteSpace=wrap;html=1;fontSize=16;" vertex="1" parent="a0pVStgp1Q9jCsYy35CJ-159">
          <mxGeometry x="30" width="220" height="33" as="geometry">
            <mxRectangle width="220" height="33" as="alternateBounds" />
          </mxGeometry>
        </mxCell>
        <mxCell id="a0pVStgp1Q9jCsYy35CJ-162" value="" style="shape=tableRow;horizontal=0;startSize=0;swimlaneHead=0;swimlaneBody=0;fillColor=none;collapsible=0;dropTarget=0;points=[[0,0.5],[1,0.5]];portConstraint=eastwest;top=0;left=0;right=0;bottom=0;fontSize=16;" vertex="1" parent="a0pVStgp1Q9jCsYy35CJ-152">
          <mxGeometry y="146" width="250" height="33" as="geometry" />
        </mxCell>
        <mxCell id="a0pVStgp1Q9jCsYy35CJ-163" value="" style="shape=partialRectangle;connectable=0;fillColor=none;top=0;left=0;bottom=0;right=0;editable=1;overflow=hidden;whiteSpace=wrap;html=1;fontSize=16;" vertex="1" parent="a0pVStgp1Q9jCsYy35CJ-162">
          <mxGeometry width="30" height="33" as="geometry">
            <mxRectangle width="30" height="33" as="alternateBounds" />
          </mxGeometry>
        </mxCell>
        <mxCell id="a0pVStgp1Q9jCsYy35CJ-164" value="seller_key" style="shape=partialRectangle;connectable=0;fillColor=none;top=0;left=0;bottom=0;right=0;align=left;spacingLeft=6;overflow=hidden;whiteSpace=wrap;html=1;fontSize=16;" vertex="1" parent="a0pVStgp1Q9jCsYy35CJ-162">
          <mxGeometry x="30" width="220" height="33" as="geometry">
            <mxRectangle width="220" height="33" as="alternateBounds" />
          </mxGeometry>
        </mxCell>
        <mxCell id="a0pVStgp1Q9jCsYy35CJ-165" value="" style="shape=tableRow;horizontal=0;startSize=0;swimlaneHead=0;swimlaneBody=0;fillColor=none;collapsible=0;dropTarget=0;points=[[0,0.5],[1,0.5]];portConstraint=eastwest;top=0;left=0;right=0;bottom=0;fontSize=16;" vertex="1" parent="a0pVStgp1Q9jCsYy35CJ-152">
          <mxGeometry y="179" width="250" height="33" as="geometry" />
        </mxCell>
        <mxCell id="a0pVStgp1Q9jCsYy35CJ-166" value="" style="shape=partialRectangle;connectable=0;fillColor=none;top=0;left=0;bottom=0;right=0;editable=1;overflow=hidden;whiteSpace=wrap;html=1;fontSize=16;" vertex="1" parent="a0pVStgp1Q9jCsYy35CJ-165">
          <mxGeometry width="30" height="33" as="geometry">
            <mxRectangle width="30" height="33" as="alternateBounds" />
          </mxGeometry>
        </mxCell>
        <mxCell id="a0pVStgp1Q9jCsYy35CJ-167" value="review_key" style="shape=partialRectangle;connectable=0;fillColor=none;top=0;left=0;bottom=0;right=0;align=left;spacingLeft=6;overflow=hidden;whiteSpace=wrap;html=1;fontSize=16;" vertex="1" parent="a0pVStgp1Q9jCsYy35CJ-165">
          <mxGeometry x="30" width="220" height="33" as="geometry">
            <mxRectangle width="220" height="33" as="alternateBounds" />
          </mxGeometry>
        </mxCell>
        <mxCell id="a0pVStgp1Q9jCsYy35CJ-168" value="" style="shape=tableRow;horizontal=0;startSize=0;swimlaneHead=0;swimlaneBody=0;fillColor=none;collapsible=0;dropTarget=0;points=[[0,0.5],[1,0.5]];portConstraint=eastwest;top=0;left=0;right=0;bottom=0;fontSize=16;" vertex="1" parent="a0pVStgp1Q9jCsYy35CJ-152">
          <mxGeometry y="212" width="250" height="33" as="geometry" />
        </mxCell>
        <mxCell id="a0pVStgp1Q9jCsYy35CJ-169" value="" style="shape=partialRectangle;connectable=0;fillColor=none;top=0;left=0;bottom=0;right=0;editable=1;overflow=hidden;whiteSpace=wrap;html=1;fontSize=16;" vertex="1" parent="a0pVStgp1Q9jCsYy35CJ-168">
          <mxGeometry width="30" height="33" as="geometry">
            <mxRectangle width="30" height="33" as="alternateBounds" />
          </mxGeometry>
        </mxCell>
        <mxCell id="a0pVStgp1Q9jCsYy35CJ-170" value="order_status" style="shape=partialRectangle;connectable=0;fillColor=none;top=0;left=0;bottom=0;right=0;align=left;spacingLeft=6;overflow=hidden;whiteSpace=wrap;html=1;fontSize=16;" vertex="1" parent="a0pVStgp1Q9jCsYy35CJ-168">
          <mxGeometry x="30" width="220" height="33" as="geometry">
            <mxRectangle width="220" height="33" as="alternateBounds" />
          </mxGeometry>
        </mxCell>
        <mxCell id="a0pVStgp1Q9jCsYy35CJ-171" value="" style="shape=tableRow;horizontal=0;startSize=0;swimlaneHead=0;swimlaneBody=0;fillColor=none;collapsible=0;dropTarget=0;points=[[0,0.5],[1,0.5]];portConstraint=eastwest;top=0;left=0;right=0;bottom=0;fontSize=16;" vertex="1" parent="a0pVStgp1Q9jCsYy35CJ-152">
          <mxGeometry y="245" width="250" height="33" as="geometry" />
        </mxCell>
        <mxCell id="a0pVStgp1Q9jCsYy35CJ-172" value="" style="shape=partialRectangle;connectable=0;fillColor=none;top=0;left=0;bottom=0;right=0;editable=1;overflow=hidden;whiteSpace=wrap;html=1;fontSize=16;" vertex="1" parent="a0pVStgp1Q9jCsYy35CJ-171">
          <mxGeometry width="30" height="33" as="geometry">
            <mxRectangle width="30" height="33" as="alternateBounds" />
          </mxGeometry>
        </mxCell>
        <mxCell id="a0pVStgp1Q9jCsYy35CJ-173" value="order_timestamp" style="shape=partialRectangle;connectable=0;fillColor=none;top=0;left=0;bottom=0;right=0;align=left;spacingLeft=6;overflow=hidden;whiteSpace=wrap;html=1;fontSize=16;" vertex="1" parent="a0pVStgp1Q9jCsYy35CJ-171">
          <mxGeometry x="30" width="220" height="33" as="geometry">
            <mxRectangle width="220" height="33" as="alternateBounds" />
          </mxGeometry>
        </mxCell>
        <mxCell id="a0pVStgp1Q9jCsYy35CJ-174" value="" style="shape=tableRow;horizontal=0;startSize=0;swimlaneHead=0;swimlaneBody=0;fillColor=none;collapsible=0;dropTarget=0;points=[[0,0.5],[1,0.5]];portConstraint=eastwest;top=0;left=0;right=0;bottom=0;fontSize=16;" vertex="1" parent="a0pVStgp1Q9jCsYy35CJ-152">
          <mxGeometry y="278" width="250" height="33" as="geometry" />
        </mxCell>
        <mxCell id="a0pVStgp1Q9jCsYy35CJ-175" value="" style="shape=partialRectangle;connectable=0;fillColor=none;top=0;left=0;bottom=0;right=0;editable=1;overflow=hidden;whiteSpace=wrap;html=1;fontSize=16;" vertex="1" parent="a0pVStgp1Q9jCsYy35CJ-174">
          <mxGeometry width="30" height="33" as="geometry">
            <mxRectangle width="30" height="33" as="alternateBounds" />
          </mxGeometry>
        </mxCell>
        <mxCell id="a0pVStgp1Q9jCsYy35CJ-176" value="approved_timestamp" style="shape=partialRectangle;connectable=0;fillColor=none;top=0;left=0;bottom=0;right=0;align=left;spacingLeft=6;overflow=hidden;whiteSpace=wrap;html=1;fontSize=16;" vertex="1" parent="a0pVStgp1Q9jCsYy35CJ-174">
          <mxGeometry x="30" width="220" height="33" as="geometry">
            <mxRectangle width="220" height="33" as="alternateBounds" />
          </mxGeometry>
        </mxCell>
        <mxCell id="a0pVStgp1Q9jCsYy35CJ-177" value="" style="shape=tableRow;horizontal=0;startSize=0;swimlaneHead=0;swimlaneBody=0;fillColor=none;collapsible=0;dropTarget=0;points=[[0,0.5],[1,0.5]];portConstraint=eastwest;top=0;left=0;right=0;bottom=0;fontSize=16;" vertex="1" parent="a0pVStgp1Q9jCsYy35CJ-152">
          <mxGeometry y="311" width="250" height="33" as="geometry" />
        </mxCell>
        <mxCell id="a0pVStgp1Q9jCsYy35CJ-178" value="" style="shape=partialRectangle;connectable=0;fillColor=none;top=0;left=0;bottom=0;right=0;editable=1;overflow=hidden;whiteSpace=wrap;html=1;fontSize=16;" vertex="1" parent="a0pVStgp1Q9jCsYy35CJ-177">
          <mxGeometry width="30" height="33" as="geometry">
            <mxRectangle width="30" height="33" as="alternateBounds" />
          </mxGeometry>
        </mxCell>
        <mxCell id="a0pVStgp1Q9jCsYy35CJ-179" value="carrier_delivery_timestamp" style="shape=partialRectangle;connectable=0;fillColor=none;top=0;left=0;bottom=0;right=0;align=left;spacingLeft=6;overflow=hidden;whiteSpace=wrap;html=1;fontSize=16;" vertex="1" parent="a0pVStgp1Q9jCsYy35CJ-177">
          <mxGeometry x="30" width="220" height="33" as="geometry">
            <mxRectangle width="220" height="33" as="alternateBounds" />
          </mxGeometry>
        </mxCell>
        <mxCell id="a0pVStgp1Q9jCsYy35CJ-180" value="" style="shape=tableRow;horizontal=0;startSize=0;swimlaneHead=0;swimlaneBody=0;fillColor=none;collapsible=0;dropTarget=0;points=[[0,0.5],[1,0.5]];portConstraint=eastwest;top=0;left=0;right=0;bottom=0;fontSize=16;" vertex="1" parent="a0pVStgp1Q9jCsYy35CJ-152">
          <mxGeometry y="344" width="250" height="33" as="geometry" />
        </mxCell>
        <mxCell id="a0pVStgp1Q9jCsYy35CJ-181" value="" style="shape=partialRectangle;connectable=0;fillColor=none;top=0;left=0;bottom=0;right=0;editable=1;overflow=hidden;whiteSpace=wrap;html=1;fontSize=16;" vertex="1" parent="a0pVStgp1Q9jCsYy35CJ-180">
          <mxGeometry width="30" height="33" as="geometry">
            <mxRectangle width="30" height="33" as="alternateBounds" />
          </mxGeometry>
        </mxCell>
        <mxCell id="a0pVStgp1Q9jCsYy35CJ-182" value="customer_delivery_timestamp" style="shape=partialRectangle;connectable=0;fillColor=none;top=0;left=0;bottom=0;right=0;align=left;spacingLeft=6;overflow=hidden;whiteSpace=wrap;html=1;fontSize=16;" vertex="1" parent="a0pVStgp1Q9jCsYy35CJ-180">
          <mxGeometry x="30" width="220" height="33" as="geometry">
            <mxRectangle width="220" height="33" as="alternateBounds" />
          </mxGeometry>
        </mxCell>
        <mxCell id="a0pVStgp1Q9jCsYy35CJ-183" value="" style="shape=tableRow;horizontal=0;startSize=0;swimlaneHead=0;swimlaneBody=0;fillColor=none;collapsible=0;dropTarget=0;points=[[0,0.5],[1,0.5]];portConstraint=eastwest;top=0;left=0;right=0;bottom=0;fontSize=16;" vertex="1" parent="a0pVStgp1Q9jCsYy35CJ-152">
          <mxGeometry y="377" width="250" height="33" as="geometry" />
        </mxCell>
        <mxCell id="a0pVStgp1Q9jCsYy35CJ-184" value="" style="shape=partialRectangle;connectable=0;fillColor=none;top=0;left=0;bottom=0;right=0;editable=1;overflow=hidden;whiteSpace=wrap;html=1;fontSize=16;" vertex="1" parent="a0pVStgp1Q9jCsYy35CJ-183">
          <mxGeometry width="30" height="33" as="geometry">
            <mxRectangle width="30" height="33" as="alternateBounds" />
          </mxGeometry>
        </mxCell>
        <mxCell id="a0pVStgp1Q9jCsYy35CJ-185" value="estimated_delivery_timestamp" style="shape=partialRectangle;connectable=0;fillColor=none;top=0;left=0;bottom=0;right=0;align=left;spacingLeft=6;overflow=hidden;whiteSpace=wrap;html=1;fontSize=16;" vertex="1" parent="a0pVStgp1Q9jCsYy35CJ-183">
          <mxGeometry x="30" width="220" height="33" as="geometry">
            <mxRectangle width="220" height="33" as="alternateBounds" />
          </mxGeometry>
        </mxCell>
        <mxCell id="a0pVStgp1Q9jCsYy35CJ-186" value="" style="shape=tableRow;horizontal=0;startSize=0;swimlaneHead=0;swimlaneBody=0;fillColor=none;collapsible=0;dropTarget=0;points=[[0,0.5],[1,0.5]];portConstraint=eastwest;top=0;left=0;right=0;bottom=0;fontSize=16;" vertex="1" parent="a0pVStgp1Q9jCsYy35CJ-152">
          <mxGeometry y="410" width="250" height="33" as="geometry" />
        </mxCell>
        <mxCell id="a0pVStgp1Q9jCsYy35CJ-187" value="" style="shape=partialRectangle;connectable=0;fillColor=none;top=0;left=0;bottom=0;right=0;editable=1;overflow=hidden;whiteSpace=wrap;html=1;fontSize=16;" vertex="1" parent="a0pVStgp1Q9jCsYy35CJ-186">
          <mxGeometry width="30" height="33" as="geometry">
            <mxRectangle width="30" height="33" as="alternateBounds" />
          </mxGeometry>
        </mxCell>
        <mxCell id="a0pVStgp1Q9jCsYy35CJ-188" value="item_sequence" style="shape=partialRectangle;connectable=0;fillColor=none;top=0;left=0;bottom=0;right=0;align=left;spacingLeft=6;overflow=hidden;whiteSpace=wrap;html=1;fontSize=16;" vertex="1" parent="a0pVStgp1Q9jCsYy35CJ-186">
          <mxGeometry x="30" width="220" height="33" as="geometry">
            <mxRectangle width="220" height="33" as="alternateBounds" />
          </mxGeometry>
        </mxCell>
        <mxCell id="a0pVStgp1Q9jCsYy35CJ-189" value="" style="shape=tableRow;horizontal=0;startSize=0;swimlaneHead=0;swimlaneBody=0;fillColor=none;collapsible=0;dropTarget=0;points=[[0,0.5],[1,0.5]];portConstraint=eastwest;top=0;left=0;right=0;bottom=0;fontSize=16;" vertex="1" parent="a0pVStgp1Q9jCsYy35CJ-152">
          <mxGeometry y="443" width="250" height="33" as="geometry" />
        </mxCell>
        <mxCell id="a0pVStgp1Q9jCsYy35CJ-190" value="" style="shape=partialRectangle;connectable=0;fillColor=none;top=0;left=0;bottom=0;right=0;editable=1;overflow=hidden;whiteSpace=wrap;html=1;fontSize=16;" vertex="1" parent="a0pVStgp1Q9jCsYy35CJ-189">
          <mxGeometry width="30" height="33" as="geometry">
            <mxRectangle width="30" height="33" as="alternateBounds" />
          </mxGeometry>
        </mxCell>
        <mxCell id="a0pVStgp1Q9jCsYy35CJ-191" value="shipping_limit_date" style="shape=partialRectangle;connectable=0;fillColor=none;top=0;left=0;bottom=0;right=0;align=left;spacingLeft=6;overflow=hidden;whiteSpace=wrap;html=1;fontSize=16;" vertex="1" parent="a0pVStgp1Q9jCsYy35CJ-189">
          <mxGeometry x="30" width="220" height="33" as="geometry">
            <mxRectangle width="220" height="33" as="alternateBounds" />
          </mxGeometry>
        </mxCell>
        <mxCell id="a0pVStgp1Q9jCsYy35CJ-232" value="" style="shape=tableRow;horizontal=0;startSize=0;swimlaneHead=0;swimlaneBody=0;fillColor=none;collapsible=0;dropTarget=0;points=[[0,0.5],[1,0.5]];portConstraint=eastwest;top=0;left=0;right=0;bottom=0;fontSize=16;" vertex="1" parent="a0pVStgp1Q9jCsYy35CJ-152">
          <mxGeometry y="476" width="250" height="33" as="geometry" />
        </mxCell>
        <mxCell id="a0pVStgp1Q9jCsYy35CJ-233" value="" style="shape=partialRectangle;connectable=0;fillColor=none;top=0;left=0;bottom=0;right=0;editable=1;overflow=hidden;whiteSpace=wrap;html=1;fontSize=16;" vertex="1" parent="a0pVStgp1Q9jCsYy35CJ-232">
          <mxGeometry width="30" height="33" as="geometry">
            <mxRectangle width="30" height="33" as="alternateBounds" />
          </mxGeometry>
        </mxCell>
        <mxCell id="a0pVStgp1Q9jCsYy35CJ-234" value="unit_price" style="shape=partialRectangle;connectable=0;fillColor=none;top=0;left=0;bottom=0;right=0;align=left;spacingLeft=6;overflow=hidden;whiteSpace=wrap;html=1;fontSize=16;" vertex="1" parent="a0pVStgp1Q9jCsYy35CJ-232">
          <mxGeometry x="30" width="220" height="33" as="geometry">
            <mxRectangle width="220" height="33" as="alternateBounds" />
          </mxGeometry>
        </mxCell>
        <mxCell id="a0pVStgp1Q9jCsYy35CJ-235" value="" style="shape=tableRow;horizontal=0;startSize=0;swimlaneHead=0;swimlaneBody=0;fillColor=none;collapsible=0;dropTarget=0;points=[[0,0.5],[1,0.5]];portConstraint=eastwest;top=0;left=0;right=0;bottom=0;fontSize=16;" vertex="1" parent="a0pVStgp1Q9jCsYy35CJ-152">
          <mxGeometry y="509" width="250" height="33" as="geometry" />
        </mxCell>
        <mxCell id="a0pVStgp1Q9jCsYy35CJ-236" value="" style="shape=partialRectangle;connectable=0;fillColor=none;top=0;left=0;bottom=0;right=0;editable=1;overflow=hidden;whiteSpace=wrap;html=1;fontSize=16;" vertex="1" parent="a0pVStgp1Q9jCsYy35CJ-235">
          <mxGeometry width="30" height="33" as="geometry">
            <mxRectangle width="30" height="33" as="alternateBounds" />
          </mxGeometry>
        </mxCell>
        <mxCell id="a0pVStgp1Q9jCsYy35CJ-237" value="freight_value" style="shape=partialRectangle;connectable=0;fillColor=none;top=0;left=0;bottom=0;right=0;align=left;spacingLeft=6;overflow=hidden;whiteSpace=wrap;html=1;fontSize=16;" vertex="1" parent="a0pVStgp1Q9jCsYy35CJ-235">
          <mxGeometry x="30" width="220" height="33" as="geometry">
            <mxRectangle width="220" height="33" as="alternateBounds" />
          </mxGeometry>
        </mxCell>
        <mxCell id="a0pVStgp1Q9jCsYy35CJ-247" value="" style="shape=tableRow;horizontal=0;startSize=0;swimlaneHead=0;swimlaneBody=0;fillColor=none;collapsible=0;dropTarget=0;points=[[0,0.5],[1,0.5]];portConstraint=eastwest;top=0;left=0;right=0;bottom=0;fontSize=16;" vertex="1" parent="a0pVStgp1Q9jCsYy35CJ-152">
          <mxGeometry y="542" width="250" height="33" as="geometry" />
        </mxCell>
        <mxCell id="a0pVStgp1Q9jCsYy35CJ-248" value="" style="shape=partialRectangle;connectable=0;fillColor=none;top=0;left=0;bottom=0;right=0;editable=1;overflow=hidden;whiteSpace=wrap;html=1;fontSize=16;" vertex="1" parent="a0pVStgp1Q9jCsYy35CJ-247">
          <mxGeometry width="30" height="33" as="geometry">
            <mxRectangle width="30" height="33" as="alternateBounds" />
          </mxGeometry>
        </mxCell>
        <mxCell id="a0pVStgp1Q9jCsYy35CJ-249" value="payment_key" style="shape=partialRectangle;connectable=0;fillColor=none;top=0;left=0;bottom=0;right=0;align=left;spacingLeft=6;overflow=hidden;whiteSpace=wrap;html=1;fontSize=16;" vertex="1" parent="a0pVStgp1Q9jCsYy35CJ-247">
          <mxGeometry x="30" width="220" height="33" as="geometry">
            <mxRectangle width="220" height="33" as="alternateBounds" />
          </mxGeometry>
        </mxCell>
        <mxCell id="a0pVStgp1Q9jCsYy35CJ-238" style="edgeStyle=orthogonalEdgeStyle;rounded=0;orthogonalLoop=1;jettySize=auto;html=1;" edge="1" parent="1" source="a0pVStgp1Q9jCsYy35CJ-156" target="a0pVStgp1Q9jCsYy35CJ-16">
          <mxGeometry relative="1" as="geometry" />
        </mxCell>
        <mxCell id="a0pVStgp1Q9jCsYy35CJ-240" style="edgeStyle=orthogonalEdgeStyle;rounded=0;orthogonalLoop=1;jettySize=auto;html=1;entryX=1;entryY=0.5;entryDx=0;entryDy=0;" edge="1" parent="1" source="a0pVStgp1Q9jCsYy35CJ-159" target="a0pVStgp1Q9jCsYy35CJ-41">
          <mxGeometry relative="1" as="geometry" />
        </mxCell>
        <mxCell id="a0pVStgp1Q9jCsYy35CJ-241" style="edgeStyle=orthogonalEdgeStyle;rounded=0;orthogonalLoop=1;jettySize=auto;html=1;" edge="1" parent="1" source="a0pVStgp1Q9jCsYy35CJ-162" target="a0pVStgp1Q9jCsYy35CJ-75">
          <mxGeometry relative="1" as="geometry" />
        </mxCell>
        <mxCell id="a0pVStgp1Q9jCsYy35CJ-242" style="edgeStyle=orthogonalEdgeStyle;rounded=0;orthogonalLoop=1;jettySize=auto;html=1;entryX=0;entryY=0.5;entryDx=0;entryDy=0;" edge="1" parent="1" source="a0pVStgp1Q9jCsYy35CJ-165" target="a0pVStgp1Q9jCsYy35CJ-100">
          <mxGeometry relative="1" as="geometry" />
        </mxCell>
        <mxCell id="a0pVStgp1Q9jCsYy35CJ-250" style="edgeStyle=orthogonalEdgeStyle;rounded=0;orthogonalLoop=1;jettySize=auto;html=1;entryX=0;entryY=0.5;entryDx=0;entryDy=0;" edge="1" parent="1" source="a0pVStgp1Q9jCsYy35CJ-247" target="a0pVStgp1Q9jCsYy35CJ-125">
          <mxGeometry relative="1" as="geometry" />
        </mxCell>
      </root>
    </mxGraphModel>
  </diagram>
</mxfile>
